Patient4_TMGait_0pt7_01_right_44_EMG.mot
version=1
nRows=13
nColumns=33
inDegrees=no
endheader
time	1LAddLong	2LGlutMax	3LGlutMed	4LIliopsoas	5LSemiMemb	6LBicFemLong	7LRecFem	8LVastMed	9LVastLat	10LGasMed	11LTibAnt	12lTibPost	13LPeroneusLong	14LSol	15LExtDigLong	16LFlexDigLong	17RAddLong	18RGlutMax	19RGlutMed	20RIliopsoas	21RSemiMemb	22RBicFemLong	23RRecFem	24RVastMed	25RVastLat	26RGasMed	27RTibAnt	28RTibPost	29RPeroneusLong	30RSol	31RExtDigLong	32RFlexDigLong
50.837	0.001831	0.21072	0.027008	-0.015717	0.004578	-0.024719	0.12726	0.010071	0.0177	0.12848	-0.032043	0.028229	0.001984	0.30762	0.024567	0.06546	0.13916	-0.81619	-0.26474	0.15579	-0.3009	-1.0895	0.28809	-0.23758	0.31204	-0.021973	-0.029449	-0.002136	-0.50858	-0.065765	-0.001373	-0.014954
50.838	0.006714	0.30548	0.036774	-0.014648	-0.002899	-0.018768	0.10452	0.009613	0.019684	0.15503	0.005341	0.029144	0.061798	-0.028839	0.009918	-0.057526	0.12817	-0.92621	-0.47592	0.099945	-0.37476	-1.259	0.41184	-0.34866	0.22797	-0.027313	-0.042114	-0.010223	1.239	-0.059052	0.000763	-0.011292
50.839	0.008698	0.38132	0.030365	-0.006256	0.001221	-0.003357	0.14603	0.012817	0.042877	0.094757	0.063477	0.024261	0.037231	-0.2095	0.013428	-0.008392	0.053101	-0.99396	-0.41748	0.034332	-0.36301	-0.80872	0.48065	-0.25207	0.14877	-0.010223	-0.072327	-0.039063	0.52078	-0.38864	-0.001831	-0.016174
50.84	0.016174	0.3862	0.038605	0.012054	0.013275	-0.018158	0.1445	-0.00061	0.036469	0.16754	0.099182	0.031281	-0.06073	0.06073	0.022888	0.019684	-0.097046	-0.99274	-0.28793	-0.17822	-0.21668	-0.28061	0.47501	0.029907	0.063782	0.016174	-0.091858	-0.011444	-1.5541	-0.70175	-0.004883	-0.010376
50.841	0.017242	0.41687	0.049438	0.026855	-0.004272	-0.033112	0.089874	-0.007324	0.037994	0.24155	0.087433	0.020294	-0.071411	0.13382	0.099945	0.002899	-0.12116	-1.0716	-0.49789	-0.27924	0.082703	0.14786	0.39169	0.2092	-0.31815	0.010529	-0.25452	-0.095978	0.084839	-0.59082	-0.001984	-0.014954
50.842	0.007782	0.45242	0.043488	0.033722	0.002289	-0.068665	0.030365	-0.010681	0.042419	0.042419	0.33005	0.02243	-0.14465	0.14648	0.031738	-0.079346	-0.13367	-1.1613	-0.5986	-0.14954	0.067596	0.75104	0.38376	0.2005	-0.67551	0.011749	-0.13886	-0.018158	1.9806	-0.33157	-0.000458	-0.02243
50.843	0.007629	0.49027	0.056	0.040283	0.007477	-0.049744	-0.13184	-0.009155	0.055084	-0.40695	0.43488	0.028687	-0.22293	0.16113	0.079041	-0.082092	-0.092163	-1.1415	-0.65231	0.00473	0.23209	0.91843	0.55496	0.031433	-0.65597	0.023346	0.10223	-0.031586	0.47501	-0.032806	-0.003357	-0.027771
50.844	0.002747	0.49545	0.079498	0.014343	0.002899	-0.044556	-0.2211	-0.010834	0.034485	-0.37827	0.32989	0.034943	-0.14648	0.3862	0.46204	0.068054	-0.027161	-1.2338	-0.51529	0.27084	0.25742	0.76874	0.65979	-0.039368	-0.52368	0.034485	0.21606	-0.033264	-0.46387	0.043793	0.006409	-0.016174
50.845	-0.009918	0.47241	0.067596	-0.013733	0.014496	-0.045013	-0.014496	-0.01236	-0.007782	-0.23331	0.02182	0.033722	-0.079651	0.53619	0.066223	0.052948	0.037537	-1.4372	-0.23621	0.2655	0.30258	0.47836	0.61249	0.000153	-0.21347	0.015259	0.25559	-0.028992	0.10223	-0.093079	-0.000916	-0.018158
50.846	-0.010986	0.43839	0.080414	-0.027466	0.005341	-0.063019	0.11459	-0.009918	-0.030365	0.006104	-0.48416	0.033569	-0.02243	0.46829	0.36926	0.030823	0.093079	-1.6896	-0.85709	0.20645	-0.27069	0.39948	0.40726	-0.041504	-0.17334	0.030823	0.19318	-0.02243	1.8044	-0.038452	-0.003662	-0.019531
50.847	-0.014496	0.46661	0.077667	-0.014801	0.014343	-0.061493	0.055847	-0.007782	-0.059509	0.1358	-0.4245	0.036469	0.031891	0.41184	-0.23682	0.044708	0.12665	-1.7575	-1.4786	0.12528	-0.54688	0.52002	0.28686	-0.14236	-0.17242	0.024719	-0.17883	-0.023041	0.32837	0.071106	-0.002441	-0.015259
50.848	-0.013123	0.38696	0.083313	-0.021667	0.015869	-0.058899	0.069733	-0.005341	-0.071716	0.18158	-0.24628	0.036163	-0.034637	0.3595	-0.27771	0.050049	0.14679	-1.87	-0.8847	0.001831	-0.63049	0.34317	0.29739	-0.1738	0.031738	-0.006561	-0.26016	-0.022125	-1.2431	0.007019	-0.009308	-0.012512
50.849	-0.009918	0.44037	0.11002	-0.001068	0.010681	-0.058441	0.062256	0.005951	-0.091553	0.1976	-0.17929	0.036011	-0.0177	0.27161	-0.28336	0.026855	0.036926	-2.1552	-0.02182	-0.057068	-0.34363	-0.1944	0.4158	0.088043	0.022125	-0.058746	0.019531	-0.025787	-1.669	0.005798	-0.001984	-0.014343
